<?xml version="1.0" encoding="UTF-8"?>
<svg width="602px" height="160px" viewBox="0 0 602 160" version="1.1" xmlns="http://www.w3.org/2000/svg" xmlns:xlink="http://www.w3.org/1999/xlink">
    <title>ICNAMING2_w_h</title>
    <defs>
        <linearGradient x1="50%" y1="0%" x2="50%" y2="100%" id="linearGradient-1">
            <stop stop-color="#0093FF" stop-opacity="0" offset="0%"></stop>
            <stop stop-color="#0093FF" offset="20%"></stop>
            <stop stop-color="#0093FF" offset="80%"></stop>
            <stop stop-color="#0093FF" stop-opacity="0" offset="100%"></stop>
        </linearGradient>
        <linearGradient x1="30.4323957%" y1="91.7810726%" x2="50%" y2="36.9777053%" id="linearGradient-2">
            <stop stop-color="#00CF68" offset="0%"></stop>
            <stop stop-color="#00CF68" offset="33.9980332%"></stop>
            <stop stop-color="#00CF68" stop-opacity="0" offset="100%"></stop>
        </linearGradient>
        <linearGradient x1="64.0716207%" y1="8.89168397%" x2="40.1086678%" y2="52.1519086%" id="linearGradient-3">
            <stop stop-color="#5500FF" offset="0%"></stop>
            <stop stop-color="#5500FF" offset="33.4467837%"></stop>
            <stop stop-color="#5500FF" stop-opacity="0" offset="100%"></stop>
        </linearGradient>
    </defs>
    <g id="页面-1" stroke="none" stroke-width="1" fill="none" fill-rule="evenodd">
        <g id="Deland-Labs" transform="translate(-1111.000000, -6375.000000)" fill-rule="nonzero">
            <g id="编组-7备份-6" transform="translate(1005.000000, 6002.000000)">
                <g id="编组-12" transform="translate(106.000000, 373.000000)">
                    <g id="编组-15备份">
                        <path d="M110.857143,12 L110.857143,102.189084 C110.857143,109.778763 101.747417,113.589381 96.3435989,108.366903 L96.1809944,108.205876 L65.1422857,76.7135673 L65.1428571,147.428571 L48,147.428571 L48,55.8067402 C48,48.217062 57.1097262,44.4064438 62.5135439,49.6289212 L62.6761484,49.7899485 L93.7137143,81.2809959 L93.7142857,12 L110.857143,12 Z" id="路径" fill="url(#linearGradient-1)"></path>
                        <path d="M80,0 L80,17.1428571 C63.5028397,17.1428571 48.0306227,23.5142291 36.3890071,34.7328882 C24.1658289,46.5119807 17.1428571,62.6860432 17.1428571,80 C17.1428571,102.282987 28.995999,122.405476 47.3536663,133.624426 L48,134.013567 L48,55.8067402 L65.1428571,55.8067402 L65.1428571,147.428571 C65.1428571,153.334475 59.3100556,157.470932 53.7365229,155.517619 C21.8760705,144.351735 0,114.205123 0,80 C0,57.9809811 8.95094359,37.3667561 24.4934883,22.3888944 C39.1506183,8.26427895 58.6271913,0.16304669 79.371015,0.0024345059 L80,0 Z" id="路径" fill="url(#linearGradient-2)"></path>
                        <path d="M93.7142857,12 C93.7142857,6.1652486 99.4173511,2.0357537 104.96069,3.85666568 C137.511862,14.5492866 160,45.1639644 160,80 C160,101.405618 151.543058,121.49523 136.756447,136.380015 C121.989917,151.244585 101.996103,159.827254 80.6473429,159.997421 L80,160 L80,142.857143 C96.9783752,142.857143 112.865018,136.105792 124.594576,124.298358 C136.22233,112.593403 142.857143,96.8322898 142.857143,80 C142.857143,56.9991751 130.377018,36.3289752 111.234366,25.3270863 L110.857143,25.1131429 L110.857143,102.189084 L93.7142857,102.189084 L93.7142857,12 Z" id="路径" fill="url(#linearGradient-3)"></path>
                    </g>
                    <path d="M214.161496,55.1415243 C216.459826,55.1415243 218.322992,57.0046894 218.322992,59.3030201 L218.322992,100.928236 C218.322992,103.226567 216.459826,105.089732 214.161496,105.089732 C211.863165,105.089732 210,103.226567 210,100.928236 L210,59.3030201 C210,57.0046894 211.863165,55.1415243 214.161496,55.1415243 Z M477.155127,55.1415243 C479.453458,55.1415243 481.316623,57.0046894 481.316623,59.3030201 L481.316623,100.928236 C481.316623,103.226567 479.453458,105.089732 477.155127,105.089732 C474.856797,105.089732 472.993631,103.226567 472.993631,100.928236 L472.993631,59.3030201 C472.993631,57.0046894 474.856797,55.1415243 477.155127,55.1415243 Z M270.341689,55.1415243 C276.030057,55.1415243 280.652161,59.7076825 280.744034,65.3753207 L280.745428,65.5474009 L280.745428,67.6294311 C280.745428,69.9277617 278.882263,71.7909268 276.583932,71.7909268 C274.285602,71.7909268 272.422436,69.9277617 272.422436,67.6294311 L272.422436,65.5474009 C272.422436,64.4174809 271.522165,63.4978737 270.39993,63.4670251 L270.341689,63.4662256 L241.211218,63.4662256 C240.08153,63.4662256 239.162112,64.3666816 239.13127,65.4891478 L239.13047,65.5474009 L239.13047,94.6838553 C239.13047,95.8137753 240.030741,96.7333825 241.152977,96.7642311 L241.211218,96.7650306 L270.341689,96.7650306 C271.471376,96.7650306 272.390795,95.8645746 272.421637,94.7421084 L272.422436,94.6838553 L272.422436,92.6018251 C272.422436,90.3034945 274.285602,88.4403294 276.583932,88.4403294 C278.882263,88.4403294 280.745428,90.3034945 280.745428,92.6018251 L280.745428,94.6838553 C280.745428,100.373392 276.180208,104.996446 270.513733,105.088338 L270.341689,105.089732 L241.211218,105.089732 C235.52285,105.089732 230.900746,100.523574 230.808873,94.8559355 L230.807479,94.6838553 L230.807479,65.5474009 C230.807479,59.857864 235.372699,55.2348105 241.039173,55.1429184 L241.211218,55.1415243 L270.341689,55.1415243 Z M534.844873,55.1415243 C537.143203,55.1415243 539.006369,57.0046894 539.006369,59.3030201 L539.006369,101.003515 C539.006369,103.212654 537.215508,105.003515 535.006369,105.003515 C533.903457,105.003515 532.849487,104.548128 532.093586,103.744992 L501.552907,71.2959281 L501.552907,100.928236 C501.552907,103.226567 499.689742,105.089732 497.391411,105.089732 C495.09308,105.089732 493.229915,103.226567 493.229915,100.928236 L493.229915,59.2277409 C493.229915,57.0186019 495.020776,55.2277409 497.229915,55.2277409 C498.332826,55.2277409 499.386797,55.6831287 500.142698,56.4862639 L530.683377,88.9353281 L530.683377,59.3030201 C530.683377,57.0046894 532.546542,55.1415243 534.844873,55.1415243 Z M335.844873,55.1415243 C338.143203,55.1415243 340.006369,57.0046894 340.006369,59.3030201 L340.006369,101.003515 C340.006369,103.212654 338.215508,105.003515 336.006369,105.003515 C334.903457,105.003515 333.849487,104.548128 333.093586,103.744992 L302.552907,71.2959281 L302.552907,100.928236 C302.552907,103.226567 300.689742,105.089732 298.391411,105.089732 C296.09308,105.089732 294.229915,103.226567 294.229915,100.928236 L294.229915,59.2277409 C294.229915,57.0186019 296.020776,55.2277409 298.229915,55.2277409 C299.332826,55.2277409 300.386797,55.6831287 301.142698,56.4862639 L331.683377,88.9353281 L331.683377,59.3030201 C331.683377,57.0046894 333.546542,55.1415243 335.844873,55.1415243 Z M577.031025,55.1415243 C581.744256,55.1143072 586.311587,56.5381099 590.733018,59.4129324 C592.442158,60.524223 592.926816,62.8106335 591.815528,64.5197761 C591.691179,64.7110225 591.54937,64.8903303 591.391921,65.0553983 C589.766473,66.7594987 587.203695,67.1695385 585.127691,66.0576736 C581.902004,64.3300416 579.203116,63.4662256 577.031025,63.4662256 C567.837703,63.4662256 560.385042,70.920417 560.385042,80.1156281 C560.385042,89.3108392 567.837703,96.7650306 577.031025,96.7650306 C584.753416,96.7650306 591.247596,91.5053532 593.128041,84.372218 L593.151828,84.2779787 L581.193376,84.2779787 C578.894573,84.2779787 577.031025,82.4144309 577.031025,80.1156281 C577.031025,77.8168253 578.894573,75.9532775 581.193376,75.9532775 L598,75.9532775 C600.209139,75.9532775 602,77.7441385 602,79.9532775 L602,80.1156281 C602,93.9084448 590.821009,105.089732 577.031025,105.089732 C563.241042,105.089732 552.062051,93.9084448 552.062051,80.1156281 C552.062051,66.3228115 563.241271,55.221155 577.031025,55.1415243 Z M459.094616,55.9479806 C459.991799,56.7079945 460.509144,57.8242615 460.509144,59.0000836 L460.509144,100.928236 C460.509144,103.226567 458.645979,105.089732 456.347648,105.089732 C454.049318,105.089732 452.186153,103.226567 452.186153,100.928236 L452.186153,71.3399504 L438.524409,86.6469444 C437.0534,88.2951034 434.524815,88.4387118 432.876656,86.9677028 C432.76376,86.8669419 432.656674,86.7598558 432.555912,86.646961 L418.894187,71.3401585 L418.894187,100.928236 C418.894187,103.226567 417.031021,105.089732 414.732691,105.089732 C412.43436,105.089732 410.571195,103.226567 410.571195,100.928236 L410.571195,59.0000836 C410.571195,56.7909446 412.362056,55.0000836 414.571195,55.0000836 C415.747017,55.0000836 416.863284,55.5174288 417.623298,56.4146113 L435.54017,77.5651525 L453.457041,56.4146113 C454.884958,54.7289814 457.408986,54.5200637 459.094616,55.9479806 Z M376.503125,55.3894975 C377.486665,55.7987398 378.266331,56.583404 378.66928,57.5695387 L396.357591,100.858036 C396.99899,102.427729 396.246459,104.220175 394.676766,104.861575 C394.308105,105.012215 393.913659,105.089694 393.515409,105.089694 C390.757114,105.089694 388.279366,103.402951 387.268029,100.83675 L386.114968,97.9095148 L363.547968,97.9095148 L362.352991,100.85433 C361.313327,103.4148 358.825546,105.089694 356.062051,105.089694 C354.378089,105.089694 353.012968,103.724573 353.012968,102.040611 C353.012968,101.638556 353.092484,101.240471 353.246939,100.869267 L371.273413,57.5459081 C372.122082,55.5062865 374.463504,54.5408286 376.503125,55.3894975 Z M375,69.7074513 L366.928968,89.5845148 L382.833968,89.5845148 L375,69.7074513 Z" id="形状结合备份-11" fill="#FFFFFF"></path>
                </g>
            </g>
        </g>
    </g>
</svg>